<?xml version="1.0" encoding="utf-8"?>
<!-- Generator: Adobe Illustrator 26.2.1, SVG Export Plug-In . SVG Version: 6.00 Build 0)  -->
<svg version="1.1" id="Layer_1" xmlns="http://www.w3.org/2000/svg" xmlns:xlink="http://www.w3.org/1999/xlink" x="0px" y="0px"
	 viewBox="0 0 138.2 47.4" style="enable-background:new 0 0 138.2 47.4;" xml:space="preserve">
<style type="text/css">
	.st0{fill:#6DCFF6;stroke:#4858A7;stroke-miterlimit:10;}
	.st1{fill:#6DCFF6;}
	.st2{fill:#EF3F2D;}
</style>
<g id="Group_473">
	<g id="Group_410" transform="translate(2.391 0.003)">
		<g id="Group_384" transform="translate(41.431 0.791)">
			<path id="Path_293" class="st0" d="M0,0"/>
		</g>
		<g id="Group_385" transform="translate(42.495 0.791)">
			<path id="Path_294" class="st0" d="M0,0"/>
		</g>
		<g id="Group_409">
			<g id="Group_386" transform="translate(0 0.658)">
				<path id="Path_295" class="st1" d="M32.6,45.4H0L8.7,0h32.9v0.2L32.6,45.4z M0.3,45.1h32.1l8.9-44.8H8.9L0.3,45.1z"/>
			</g>
			<g id="Group_387" transform="translate(7.104 9.407)">
				<rect id="Rectangle_347" x="0" y="0" class="st1" width="32.8" height="0.3"/>
			</g>
			<g id="Group_388" transform="translate(5.401 18.322)">
				<rect id="Rectangle_348" x="0" y="0" class="st1" width="32.9" height="0.3"/>
			</g>
			<g id="Group_389" transform="translate(3.734 27.05)">
				<rect id="Rectangle_349" x="0" y="0" class="st1" width="32.6" height="0.3"/>
			</g>
			<g id="Group_390" transform="translate(1.843 36.943)">
				<rect id="Rectangle_350" x="0" y="0" class="st1" width="32.4" height="0.3"/>
			</g>
			<g id="Group_391" transform="translate(10.797 45.891)">
				<path id="Path_296" class="st0" d="M0,0"/>
			</g>
			<g id="Group_392" transform="translate(19.625 0.791)">
				<path id="Path_297" class="st0" d="M0,0"/>
			</g>
			<g id="Group_393" transform="translate(21.721 0.766)">
				
					<rect id="Rectangle_351" x="-18.5" y="22.5" transform="matrix(0.1856 -0.9826 0.9826 0.1856 -18.6215 22.8015)" class="st1" width="45.9" height="0.3"/>
			</g>
			<g id="Group_394" transform="translate(32.497 45.85)">
				<path id="Path_298" class="st0" d="M0,0"/>
			</g>
			<g id="Group_395" transform="translate(18.42 0.791)">
				<path id="Path_299" class="st0" d="M0,0"/>
			</g>
			<g id="Group_396" transform="translate(22.923 45.891)">
				<path id="Path_300" class="st0" d="M0,0"/>
			</g>
			<g id="Group_397" transform="translate(8.834 0.844)">
				<path id="Path_301" class="st0" d="M0,0"/>
			</g>
			<g id="Group_398" transform="translate(9.411 0.769)">
				
					<rect id="Rectangle_352" x="-11.5" y="22.5" transform="matrix(0.5769 -0.8168 0.8168 0.5769 -11.7064 22.6936)" class="st1" width="55.2" height="0.3"/>
			</g>
			<g id="Group_399" transform="translate(0.066 0.715)">
				
					<rect id="Rectangle_353" x="-11.6" y="22.5" transform="matrix(0.5739 -0.8189 0.8189 0.5739 -11.7481 22.6863)" class="st1" width="55" height="0.3"/>
			</g>
			<g id="Group_400" transform="translate(8.776 0.791)">
				<path id="Path_302" class="st0" d="M0,0"/>
			</g>
			<g id="Group_401" transform="translate(8.951 0.932)">
				<path id="Path_303" class="st0" d="M0,0"/>
			</g>
			<g id="Group_402" transform="translate(0.16 45.891)">
				<path id="Path_304" class="st0" d="M0,0"/>
			</g>
			<g id="Group_403" transform="translate(32.496 45.891)">
				<path id="Path_305" class="st0" d="M0,0"/>
			</g>
			<g id="Group_404" transform="translate(32.641 45.921)">
				<path id="Path_306" class="st0" d="M0,0"/>
			</g>
			<g id="Group_405" transform="translate(4.664)">
				<path id="Path_307" class="st1" d="M18,27.3c-8.3,0-13.4-1.2-15.9-3.9c-1.6-1.7-2.3-4.1-2-7.6c0.2-4.3,2.2-8.4,5.4-11.3
					C9,1.4,13.9-0.2,19.6,0c5,0.2,10.5,0.8,13.5,4.3c1.9,2.2,2.6,5.3,2.2,9.4l0,0C34.9,17.5,33,21,30,23.3
					C26.5,26,22.3,27.4,18,27.3z M18.7,0.3c-5.2,0-9.7,1.5-13,4.5c-3.2,2.9-5.1,6.8-5.3,11.1c-0.2,3.3,0.4,5.7,2,7.4
					c2.4,2.6,7.4,3.8,15.7,3.8c4.3,0.1,8.4-1.3,11.8-3.9c3-2.3,4.9-5.7,5.3-9.5h0.1h-0.1c0.4-4.1-0.3-7.1-2.1-9.2
					c-2.9-3.4-8.4-4-13.3-4.2C19.3,0.3,19,0.3,18.7,0.3z"/>
			</g>
			<g id="Group_406" transform="translate(0.028 18.322)">
				<path id="Path_308" class="st1" d="M18.9,28.4c-8.8,0-14.2-1.3-16.8-4.1C0.5,22.5-0.2,20,0,16.5C0.3,12,2.4,7.8,5.7,4.8
					c3.7-3.3,8.9-4.9,15-4.7C26,0.2,31.9,0.9,35,4.5c2,2.3,2.7,5.4,2.2,9.7h-0.1h0.1c-0.5,4-2.5,7.6-5.7,10
					C28,27,23.5,28.5,18.9,28.4z M19.7,0.3C14.1,0.3,9.4,1.9,5.9,5c-3.3,2.9-5.3,7.1-5.6,11.5c-0.2,3.5,0.4,5.9,2,7.6
					c2.6,2.7,7.8,4,16.6,4c4.5,0.1,8.9-1.4,12.5-4.1c3.1-2.4,5.1-5.9,5.6-9.8c0.4-4.2-0.3-7.3-2.2-9.5C31.7,1.2,26,0.5,20.7,0.3
					C20.3,0.3,20,0.3,19.7,0.3L19.7,0.3z"/>
			</g>
			<g id="Group_407" transform="translate(12.047 26.946)">
				<path id="Path_309" class="st1" d="M6.7,10.3c-3.1,0-4.9-0.5-5.9-1.5C0.1,8-0.1,7,0,5.9c0.1-1.6,0.8-3.1,2-4.2
					C3.5,0.5,5.4-0.1,7.3,0c1.8,0.1,3.9,0.3,5,1.6c0.8,1,1.1,2.3,0.8,3.5C12.8,8.1,10.1,10.3,6.7,10.3z M6.9,0.3
					C2.6,0.3,0.5,3.1,0.3,6C0.1,6.9,0.4,7.9,1,8.6c0.9,1,2.7,1.4,5.7,1.4c3.3,0,5.9-2.1,6.2-4.9l0,0c0.2-1.2,0-2.4-0.8-3.3
					c-0.8-1-2.3-1.4-4.8-1.5C7.2,0.3,7,0.3,6.9,0.3L6.9,0.3z"/>
			</g>
			<g id="Group_408" transform="translate(15.818 8.572)">
				<path id="Path_310" class="st1" d="M6.7,10.3c-3.1,0-4.9-0.5-5.9-1.5C0.1,8-0.1,7,0,5.9c0.1-1.6,0.8-3.1,2-4.2
					C3.5,0.5,5.4-0.1,7.3,0c1.8,0.1,3.9,0.3,5,1.6c0.8,1,1.1,2.3,0.8,3.5l0,0C12.8,8.1,10.1,10.3,6.7,10.3z M6.9,0.3
					C2.6,0.3,0.5,3.1,0.3,6C0.1,6.9,0.4,7.9,1,8.6c0.9,1,2.7,1.4,5.7,1.4c3.3,0,5.9-2.1,6.2-4.9c0.2-1.2,0-2.4-0.8-3.3
					c-0.8-1-2.3-1.4-4.8-1.5C7.2,0.3,7,0.3,6.9,0.3L6.9,0.3z"/>
			</g>
		</g>
	</g>
	<g id="Group_411" transform="translate(13.309 0.6)">
		
			<rect id="Rectangle_354" x="-18.5" y="22.5" transform="matrix(0.1856 -0.9826 0.9826 0.1856 -18.6215 22.8015)" class="st1" width="45.9" height="0.3"/>
	</g>
	<g id="Group_412">
		<path id="Path_311" class="st1" d="M19.4,46.9c-1.6,0-3.2-0.1-4.8-0.3c-4.8-0.4-9.2-3-11.8-7c-3.2-4.9-3.7-11.8-1.5-19.3
			C3.1,14.2,6.7,8.8,11.8,5c4.9-3.6,11-5.3,17.1-5c5.5,0.1,10.6,2.7,13.9,7c3.4,4.6,4.2,10.7,2.4,17.3h-0.1h0.1
			c-2.6,9.5-7,16-13.2,19.5C28.1,46,23.8,47,19.4,46.9z M27.6,0.3C22,0.2,16.5,2,12,5.3C6.9,9,3.3,14.3,1.6,20.4
			C-0.6,27.9-0.1,34.7,3,39.5c2.6,3.9,6.9,6.5,11.7,6.9c6.8,0.8,12.4-0.1,17.1-2.7c6.1-3.5,10.5-10,13.1-19.4
			c1.8-6.5,0.9-12.5-2.4-17C39.3,3,34.2,0.5,28.8,0.4C28.4,0.3,28,0.3,27.6,0.3L27.6,0.3z"/>
	</g>
	<g id="Group_413" transform="translate(10.064 8.563)">
		<path id="Path_312" class="st1" d="M10.4,28.8c-0.7,0-1.5,0-2.2-0.1c-2.6-0.2-5-1.6-6.4-3.8c-2-2.9-2.3-7.1-0.9-11.9
			c2.3-7.7,7.8-13.2,15-13c3.2,0.2,6.3,1.7,8.3,4.3c2,2.8,2.5,6.5,1.4,10.7h-0.1h0.1C23.1,24.1,17.9,28.8,10.4,28.8z M15.7,0.3
			c-7,0-12.3,5.3-14.5,12.8c-1.4,4.7-1.1,8.8,0.8,11.7c1.4,2.1,3.7,3.5,6.3,3.6c3.3,0.5,6.7-0.1,9.6-1.8c3.5-2.1,6-6.1,7.6-11.7
			c1.1-4,0.6-7.7-1.4-10.4c-1.9-2.5-4.8-4-8-4.2C15.9,0.3,15.8,0.3,15.7,0.3L15.7,0.3z"/>
	</g>
	<g id="Group_440" transform="translate(48.515 0.176)">
		<g id="Group_414" transform="translate(41.431 0.791)">
			<path id="Path_313" class="st0" d="M0,0"/>
		</g>
		<g id="Group_415" transform="translate(42.495 0.791)">
			<path id="Path_314" class="st0" d="M0,0"/>
		</g>
		<g id="Group_439">
			<g id="Group_416" transform="translate(0 0.658)">
				<path id="Path_315" class="st1" d="M32.6,45.4H0L8.7,0h32.9L32.6,45.4z M0.3,45.1h32.1l8.9-44.8H8.9L0.3,45.1z"/>
			</g>
			<g id="Group_417" transform="translate(7.104 9.407)">
				<rect id="Rectangle_355" x="0" y="0" class="st1" width="32.8" height="0.3"/>
			</g>
			<g id="Group_418" transform="translate(5.401 18.321)">
				<rect id="Rectangle_356" x="0" y="0" class="st1" width="32.9" height="0.3"/>
			</g>
			<g id="Group_419" transform="translate(3.734 27.05)">
				<rect id="Rectangle_357" x="0" y="0" class="st1" width="32.6" height="0.3"/>
			</g>
			<g id="Group_420" transform="translate(1.843 36.943)">
				<rect id="Rectangle_358" x="0" y="0" class="st1" width="32.4" height="0.3"/>
			</g>
			<g id="Group_421" transform="translate(10.797 45.891)">
				<path id="Path_316" class="st0" d="M0,0"/>
			</g>
			<g id="Group_422" transform="translate(19.625 0.791)">
				<path id="Path_317" class="st0" d="M0,0"/>
			</g>
			<g id="Group_423" transform="translate(21.722 0.766)">
				
					<rect id="Rectangle_359" x="-18.5" y="22.5" transform="matrix(0.1856 -0.9826 0.9826 0.1856 -18.6215 22.8015)" class="st1" width="45.9" height="0.3"/>
			</g>
			<g id="Group_424" transform="translate(32.498 45.849)">
				<path id="Path_318" class="st0" d="M0,0"/>
			</g>
			<g id="Group_425" transform="translate(18.421 0.791)">
				<path id="Path_319" class="st0" d="M0,0"/>
			</g>
			<g id="Group_426" transform="translate(22.923 45.891)">
				<path id="Path_320" class="st0" d="M0,0"/>
			</g>
			<g id="Group_427" transform="translate(8.834 0.844)">
				<path id="Path_321" class="st0" d="M0,0"/>
			</g>
			<g id="Group_428" transform="translate(9.411 0.769)">
				
					<rect id="Rectangle_360" x="-11.5" y="22.5" transform="matrix(0.5769 -0.8168 0.8168 0.5769 -11.7064 22.6936)" class="st1" width="55.2" height="0.3"/>
			</g>
			<g id="Group_429" transform="translate(0.066 0.715)">
				
					<rect id="Rectangle_361" x="-11.6" y="22.5" transform="matrix(0.5739 -0.8189 0.8189 0.5739 -11.7479 22.6857)" class="st1" width="55" height="0.3"/>
			</g>
			<g id="Group_430" transform="translate(8.776 0.791)">
				<path id="Path_322" class="st0" d="M0,0"/>
			</g>
			<g id="Group_431" transform="translate(8.952 0.932)">
				<path id="Path_323" class="st0" d="M0,0"/>
			</g>
			<g id="Group_432" transform="translate(0.16 45.891)">
				<path id="Path_324" class="st0" d="M0,0"/>
			</g>
			<g id="Group_433" transform="translate(32.496 45.891)">
				<path id="Path_325" class="st0" d="M0,0"/>
			</g>
			<g id="Group_434" transform="translate(32.641 45.921)">
				<path id="Path_326" class="st0" d="M0,0"/>
			</g>
			<g id="Group_435" transform="translate(4.664)">
				<path id="Path_327" class="st1" d="M18,27.3c-8.3,0-13.4-1.2-15.9-3.9c-1.6-1.7-2.3-4.1-2-7.6c0.2-4.3,2.2-8.4,5.4-11.3
					C9,1.4,13.9-0.2,19.6,0c5,0.2,10.5,0.8,13.5,4.3c1.9,2.2,2.6,5.3,2.2,9.4C34.9,17.5,33,21,30,23.3C26.5,26,22.3,27.4,18,27.3z
					 M18.7,0.3c-5.2,0-9.7,1.5-13,4.5c-3.2,2.9-5.1,6.8-5.3,11.1c-0.2,3.3,0.4,5.7,2,7.4c2.4,2.6,7.4,3.8,15.7,3.8
					c4.3,0.1,8.4-1.3,11.8-3.9c3-2.3,4.9-5.7,5.3-9.5l0,0c0.4-4.1-0.3-7.1-2.1-9.2c-2.9-3.4-8.4-4-13.3-4.2
					C19.3,0.3,19,0.3,18.7,0.3L18.7,0.3z"/>
			</g>
			<g id="Group_436" transform="translate(0.029 18.322)">
				<path id="Path_328" class="st1" d="M18.9,28.4c-8.8,0-14.2-1.3-16.8-4.1C0.5,22.5-0.2,20,0,16.5C0.3,12,2.4,7.8,5.7,4.8
					c3.7-3.3,8.9-4.9,15-4.7C26,0.2,31.9,0.9,35,4.5c2,2.3,2.7,5.4,2.2,9.7h-0.1h0.1c-0.5,4-2.5,7.6-5.7,10
					C28,27,23.5,28.5,18.9,28.4z M19.7,0.3C14.1,0.3,9.4,1.9,5.9,5c-3.3,2.9-5.3,7.1-5.6,11.5c-0.2,3.5,0.4,5.9,2,7.6
					c2.6,2.7,7.8,4,16.6,4c4.5,0.1,8.9-1.4,12.5-4.1c3.1-2.4,5.1-5.9,5.6-9.8l0,0c0.4-4.2-0.3-7.3-2.2-9.5C31.7,1.2,26,0.5,20.7,0.3
					C20.3,0.3,20,0.3,19.7,0.3L19.7,0.3z"/>
			</g>
			<g id="Group_437" transform="translate(12.048 26.946)">
				<path id="Path_329" class="st1" d="M6.7,10.3c-3.1,0-4.9-0.5-5.9-1.5C0.1,8-0.1,7,0,5.9c0.1-1.6,0.8-3.1,2-4.2
					C3.5,0.5,5.4-0.1,7.3,0c1.8,0.1,3.9,0.3,5,1.6c0.8,1,1.1,2.3,0.8,3.5l0,0C12.8,8.1,10.1,10.3,6.7,10.3z M6.9,0.3
					C2.6,0.3,0.5,3.1,0.3,6C0.1,6.9,0.4,7.9,1,8.6c0.9,1,2.7,1.4,5.7,1.4c3.3,0,5.9-2.1,6.2-4.9c0.2-1.2,0-2.4-0.8-3.3
					c-0.8-1-2.3-1.4-4.8-1.5C7.2,0.3,7,0.3,6.9,0.3L6.9,0.3z"/>
			</g>
			<g id="Group_438" transform="translate(15.819 8.179)">
				<path id="Path_330" class="st1" d="M6.7,10.7c-3.1,0-4.9-0.5-5.9-1.5C0.1,8.4-0.1,7.4,0,6.3c0.1-1.6,0.8-3.1,2-4.2
					C3.4,0.8,5.3,0,7.2,0c1.8,0.1,3.9,0.3,5,1.6c0.8,1.1,1.1,2.6,0.9,3.9C12.8,8.5,10.1,10.7,6.7,10.7z M6.8,0.3
					c-3.5-0.2-6.4,2.6-6.5,6l0,0C0.1,7.3,0.4,8.3,1,9c0.9,0.9,2.7,1.4,5.7,1.4c3.3,0,6.4-2.2,6.6-5l0.1-0.6c0.2-1.1-0.2-2.3-0.9-3.1
					c-0.8-1-2.7-1.3-5.3-1.4C7.1,0.3,6.9,0.3,6.8,0.3L6.8,0.3z"/>
			</g>
		</g>
	</g>
	<g id="Group_441" transform="translate(59.433 0.773)">
		
			<rect id="Rectangle_362" x="-18.5" y="22.5" transform="matrix(0.1856 -0.9826 0.9826 0.1856 -18.6231 22.8012)" class="st1" width="45.9" height="0.3"/>
	</g>
	<g id="Group_442" transform="translate(46.124 0.172)">
		<path id="Path_331" class="st1" d="M19.4,46.9c-1.6,0-3.2-0.1-4.8-0.3c-4.8-0.4-9.2-3-11.8-7c-3.2-4.9-3.7-11.8-1.5-19.3
			C3.1,14.2,6.7,8.8,11.8,5c4.9-3.6,11-5.3,17.1-5c5.5,0.1,10.6,2.6,13.9,7c3.4,4.6,4.2,10.7,2.4,17.3h-0.1h0.1
			c-2.6,9.5-7,16-13.2,19.5C28.1,46,23.8,47,19.4,46.9z M27.6,0.3C22,0.2,16.5,2,11.9,5.3c-5,3.7-8.6,9-10.3,15.1
			C-0.6,27.9-0.1,34.7,3,39.5c2.6,3.9,6.9,6.5,11.7,6.9c6.8,0.8,12.4-0.1,17.1-2.7c6.1-3.5,10.5-10,13.1-19.4
			c1.8-6.5,0.9-12.5-2.4-17C39.3,3,34.2,0.5,28.8,0.4C28.4,0.3,28,0.3,27.6,0.3L27.6,0.3z"/>
	</g>
	<g id="Group_443" transform="translate(56.187 8.418)">
		<path id="Path_332" class="st1" d="M10.4,29.1c-0.7,0-1.5,0-2.2-0.1c-2.6-0.2-5-1.6-6.4-3.8c-1.9-2.9-2.2-7.1-0.8-11.9
			C3.2,5.6,9.3-0.2,16.6,0c3.2,0.1,5.9,2.3,7.7,4.6c2,2.8,2.5,6.5,1.4,10.7C23.1,24.5,17.9,29.1,10.4,29.1z M16,0.2
			C9,0.2,3.3,5.9,1.1,13.4c-1.4,4.7-1.1,8.8,0.8,11.7c1.4,2.1,3.7,3.5,6.3,3.6c3.3,0.5,6.7-0.1,9.6-1.8c3.5-2.1,6-6.1,7.6-11.7h0.1
			h-0.1c1.1-4,0.6-7.7-1.4-10.4c-1.7-2.3-4.4-4.4-7.5-4.5C16.4,0.3,16.2,0.2,16,0.2L16,0.2z"/>
	</g>
	<g id="Group_469" transform="translate(94.516 0.434)">
		<g id="Group_444" transform="translate(41.431 0.791)">
			<path id="Path_333" class="st0" d="M0,0"/>
		</g>
		<g id="Group_445" transform="translate(42.495 0.791)">
			<path id="Path_334" class="st0" d="M0,0"/>
		</g>
		<g id="Group_468">
			<g id="Group_446" transform="translate(0 0.659)">
				<path id="Path_335" class="st1" d="M32.6,45.4H0L8.7,0h32.9L32.6,45.4z M0.3,45.1h32.1l8.9-44.8H8.9L0.3,45.1z"/>
			</g>
			<g id="Group_447" transform="translate(7.105 9.407)">
				<rect id="Rectangle_363" x="0" y="0" class="st1" width="32.8" height="0.3"/>
			</g>
			<g id="Group_448" transform="translate(5.402 18.322)">
				<rect id="Rectangle_364" x="0" y="0" class="st1" width="32.9" height="0.3"/>
			</g>
			<g id="Group_449" transform="translate(3.734 27.051)">
				<rect id="Rectangle_365" x="0" y="0" class="st1" width="32.6" height="0.3"/>
			</g>
			<g id="Group_450" transform="translate(1.843 36.943)">
				<rect id="Rectangle_366" x="0" y="0" class="st1" width="32.4" height="0.3"/>
			</g>
			<g id="Group_451" transform="translate(10.797 45.892)">
				<path id="Path_336" class="st0" d="M0,0"/>
			</g>
			<g id="Group_452" transform="translate(19.626 0.791)">
				<path id="Path_337" class="st0" d="M0,0"/>
			</g>
			<g id="Group_453" transform="translate(21.722 0.767)">
				
					<rect id="Rectangle_367" x="-18.5" y="22.5" transform="matrix(0.1856 -0.9826 0.9826 0.1856 -18.6215 22.8015)" class="st1" width="45.9" height="0.3"/>
			</g>
			<g id="Group_454" transform="translate(32.498 45.85)">
				<path id="Path_338" class="st0" d="M0,0"/>
			</g>
			<g id="Group_455" transform="translate(18.421 0.791)">
				<path id="Path_339" class="st0" d="M0,0"/>
			</g>
			<g id="Group_456" transform="translate(22.923 45.892)">
				<path id="Path_340" class="st0" d="M0,0"/>
			</g>
			<g id="Group_457" transform="translate(8.834 0.845)">
				<path id="Path_341" class="st0" d="M0,0"/>
			</g>
			<g id="Group_458" transform="translate(9.411 0.769)">
				
					<rect id="Rectangle_368" x="-11.5" y="22.5" transform="matrix(0.5769 -0.8168 0.8168 0.5769 -11.7064 22.6936)" class="st1" width="55.2" height="0.3"/>
			</g>
			<g id="Group_459" transform="translate(0.054 0.724)">
				
					<rect id="Rectangle_369" x="-11.6" y="22.5" transform="matrix(0.5744 -0.8186 0.8186 0.5744 -11.7478 22.684)" class="st1" width="55" height="0.3"/>
			</g>
			<g id="Group_460" transform="translate(8.776 0.791)">
				<path id="Path_342" class="st0" d="M0,0"/>
			</g>
			<g id="Group_461" transform="translate(8.952 0.933)">
				<path id="Path_343" class="st0" d="M0,0"/>
			</g>
			<g id="Group_462" transform="translate(0.16 45.892)">
				<path id="Path_344" class="st0" d="M0,0"/>
			</g>
			<g id="Group_463" transform="translate(32.496 45.892)">
				<path id="Path_345" class="st0" d="M0,0"/>
			</g>
			<g id="Group_464" transform="translate(32.641 45.921)">
				<path id="Path_346" class="st0" d="M0,0"/>
			</g>
			<g id="Group_465" transform="translate(4.664)">
				<path id="Path_347" class="st1" d="M18,27.3c-8.3,0-13.4-1.2-15.9-3.9c-1.6-1.7-2.3-4.1-2-7.6c0.2-4.3,2.2-8.4,5.4-11.3
					C9,1.4,13.9-0.2,19.6,0c5,0.2,10.5,0.8,13.5,4.3c1.9,2.2,2.6,5.3,2.2,9.4C34.9,17.5,33,21,30,23.3C26.5,26,22.3,27.4,18,27.3z
					 M18.7,0.3c-5.2,0-9.7,1.5-13,4.5c-3.2,2.9-5.1,6.8-5.3,11.1c-0.2,3.3,0.4,5.7,2,7.4c2.4,2.6,7.4,3.8,15.7,3.8
					c4.3,0.1,8.4-1.3,11.8-3.9c3-2.3,4.9-5.7,5.3-9.5l0,0c0.4-4.1-0.3-7.1-2.1-9.2c-2.9-3.4-8.4-4-13.3-4.2
					C19.3,0.3,19,0.3,18.7,0.3L18.7,0.3z"/>
			</g>
			<g id="Group_466" transform="translate(0.029 18.322)">
				<path id="Path_348" class="st1" d="M18.9,28.4c-8.8,0-14.2-1.3-16.8-4.1C0.5,22.5-0.2,20,0,16.5C0.3,12,2.4,7.8,5.7,4.8
					c3.7-3.3,8.9-4.9,15-4.7C26,0.2,31.9,0.9,35,4.5c2,2.3,2.7,5.4,2.2,9.7h-0.1h0.1c-0.5,4-2.5,7.6-5.7,10
					C28,27,23.5,28.5,18.9,28.4z M19.7,0.3C14.1,0.3,9.4,1.9,5.9,5c-3.3,2.9-5.3,7.1-5.6,11.5c-0.2,3.5,0.4,5.9,2,7.6
					c2.6,2.7,7.8,4,16.6,4c4.5,0.1,8.9-1.4,12.5-4.1c3.1-2.4,5.1-5.9,5.6-9.8l0,0c0.4-4.2-0.3-7.3-2.2-9.5C31.7,1.2,26,0.5,20.7,0.3
					C20.3,0.3,20,0.3,19.7,0.3L19.7,0.3z"/>
			</g>
			<g id="Group_467" transform="translate(12.048 26.946)">
				<path id="Path_349" class="st1" d="M6.7,10.3c-3.1,0-4.9-0.5-5.9-1.5C0.1,8-0.1,7,0,5.9c0.1-1.6,0.8-3.1,2-4.2
					C3.5,0.5,5.4-0.1,7.3,0c1.8,0.1,3.9,0.3,5,1.6c0.8,1,1.1,2.3,0.8,3.5l0,0C12.8,8.1,10.1,10.3,6.7,10.3z M6.9,0.3
					C2.6,0.3,0.5,3.1,0.3,6C0.1,6.9,0.4,7.9,1,8.6c0.9,1,2.7,1.4,5.7,1.4c3.3,0,5.9-2.1,6.2-4.9c0.2-1.2,0-2.4-0.8-3.3
					c-0.8-1-2.3-1.4-4.8-1.5C7.2,0.3,7,0.3,6.9,0.3L6.9,0.3z"/>
			</g>
		</g>
	</g>
	<g id="Group_470" transform="translate(105.434 1.031)">
		
			<rect id="Rectangle_370" x="-18.5" y="22.5" transform="matrix(0.1856 -0.9826 0.9826 0.1856 -18.6215 22.8015)" class="st1" width="45.9" height="0.3"/>
	</g>
	<g id="Group_471" transform="translate(92.125 0.431)">
		<path id="Path_350" class="st1" d="M19.4,46.9c-1.6,0-3.2-0.1-4.8-0.3c-4.8-0.4-9.2-3-11.8-7c-3.2-4.9-3.7-11.8-1.5-19.3
			C3.1,14.2,6.7,8.8,11.8,5c4.9-3.6,11-5.3,17.1-5c5.5,0.1,10.6,2.6,13.9,7c3.4,4.6,4.2,10.7,2.4,17.3h-0.1h0.1
			c-2.6,9.5-7,16-13.2,19.5C28.1,46,23.8,47,19.4,46.9z M27.6,0.3C22,0.2,16.5,2,11.9,5.3c-5,3.7-8.6,9-10.3,15.1
			C-0.6,27.9-0.1,34.7,3,39.5c2.6,3.9,6.9,6.5,11.7,6.9c6.8,0.8,12.4-0.1,17.1-2.7c6.1-3.5,10.5-10,13.1-19.4
			c1.8-6.5,0.9-12.5-2.4-17C39.3,3,34.2,0.5,28.8,0.4C28.4,0.3,28,0.3,27.6,0.3L27.6,0.3z"/>
	</g>
	<g id="Group_472" transform="translate(102.188 8.663)">
		<path id="Path_351" class="st1" d="M10.4,29.1c-0.7,0-1.5,0-2.2-0.1c-2.6-0.2-5-1.6-6.4-3.8c-1.9-2.9-2.2-7.1-0.8-11.9
			C3.2,5.6,9.4-0.2,16.7,0c3.2,0.1,5.8,2.3,7.5,4.6c2,2.8,2.5,6.5,1.4,10.7l0,0C23.1,24.5,17.9,29.1,10.4,29.1z M16.3,0.3
			C9.3,0.3,3.4,6,1.1,13.4c-1.4,4.7-1.1,8.8,0.8,11.7c1.4,2.1,3.7,3.5,6.3,3.6c3.3,0.5,6.7-0.1,9.6-1.8c3.5-2.1,6-6.1,7.6-11.7
			c1.1-4,0.6-7.7-1.4-10.4c-1.7-2.3-4.2-4.4-7.3-4.5C16.6,0.3,16.4,0.3,16.3,0.3L16.3,0.3z"/>
	</g>
</g>
<path id="Path_352" class="st2" d="M134.8,12.5c0.2-11-8.4-12.6-18.3-12c-12.7,0.8-18.2,9.2-18,17.6c0.2,7.3,3.8,10.8,18.6,9.5
	l-0.1,0.1l-13.5,18.8h12.3c0,0,10.3-13.9,13.1-18.6c3.2-4,5.2-8.9,5.8-14C134.8,13.4,134.8,13,134.8,12.5z M110,15.6
	c-0.1-3.1,2.2-6.2,6.8-6.5c3.6-0.2,6.4,0.3,6.4,4.4c0,2.8-2.5,5.3-6.1,5.6C111.5,19.7,110.1,18.4,110,15.6L110,15.6z"/>
<path id="Path_353" class="st2" d="M11,0.6L6,27.3h21.6L24.1,46h11l9-45.4H32.6l-3.3,17.7H18.8l3.4-17.7L11,0.6z"/>
<path id="Path_354" class="st2" d="M73,0.1C62.5-0.1,56,5.3,54,12l0,0c-0.3,1-0.5,2-0.6,3h11.3c0-1,0.3-2,0.7-2.9
	c1-2,3.2-3.5,6.5-3.4c3,0.1,5.2,0.7,5.6,3.4l0,0c0,2-0.3,4.6-3.2,5.8c-6.4,2.7-12.7,4.8-18,9.3c-4.6,3.9-8.2,13.5-8.6,18.9
	c8.5,0,33.5,0,33.5,0l1.9-9.1H61.4c0.3-1.4,3.7-7,12.3-9.3c2.5-0.8,5-1.8,7.3-3c0.3-0.2,0.6-0.3,0.8-0.5l0,0l0,0
	c3.8-2.3,6.4-6.2,6.9-10.6C89.9,2.8,82.3,0.4,73,0.1z"/>
</svg>
