<?xml version="1.0" encoding="utf-8"?>
<!-- Generator: Adobe Illustrator 26.2.1, SVG Export Plug-In . SVG Version: 6.00 Build 0)  -->
<svg version="1.1" id="Layer_1" xmlns="http://www.w3.org/2000/svg" xmlns:xlink="http://www.w3.org/1999/xlink" x="0px" y="0px"
	 viewBox="0 0 138.2 47.4" style="enable-background:new 0 0 138.2 47.4;" xml:space="preserve">
<style type="text/css">
	.st0{fill:#FFFFFF;}
</style>
<path id="Path_352" class="st0" d="M134.8,12.5c0.2-11-8.4-12.6-18.3-12c-12.7,0.8-18.2,9.2-18,17.6c0.2,7.3,3.8,10.8,18.6,9.5
	l-0.1,0.1l-13.5,18.8h12.3c0,0,10.3-13.9,13.1-18.6c3.2-4,5.2-8.9,5.8-14C134.8,13.4,134.8,13,134.8,12.5z M110,15.6
	c-0.1-3.1,2.2-6.2,6.8-6.5c3.6-0.2,6.4,0.3,6.4,4.4c0,2.8-2.5,5.3-6.1,5.6C111.5,19.7,110.1,18.4,110,15.6L110,15.6z"/>
<path id="Path_353" class="st0" d="M11,0.6L6,27.3h21.6L24.1,46h11l9-45.4H32.6l-3.3,17.7H18.8l3.4-17.7L11,0.6z"/>
<path id="Path_354" class="st0" d="M73,0.1C62.5-0.1,56,5.3,54,12l0,0c-0.3,1-0.5,2-0.6,3h11.3c0-1,0.3-2,0.7-2.9
	c1-2,3.2-3.5,6.5-3.4c3,0.1,5.2,0.7,5.6,3.4l0,0c0,2-0.3,4.6-3.2,5.8c-6.4,2.7-12.7,4.8-18,9.3c-4.6,3.9-8.2,13.5-8.6,18.9
	c8.5,0,33.5,0,33.5,0l1.9-9.1H61.4c0.3-1.4,3.7-7,12.3-9.3c2.5-0.8,5-1.8,7.3-3c0.3-0.2,0.6-0.3,0.8-0.5l0,0l0,0
	c3.8-2.3,6.4-6.2,6.9-10.6C89.9,2.8,82.3,0.4,73,0.1z"/>
</svg>
